<svg width="100" height="100" viewBox="0 0 100 100" fill="none" xmlns="http://www.w3.org/2000/svg">
<path d="M11.0355 3.96447C9.08291 2.01184 5.91709 2.01184 3.96447 3.96447C2.01184 5.91709 2.01184 9.08291 3.96447 11.0355L11.0355 3.96447ZM88.9645 96.0355C90.9171 97.9882 94.0829 97.9882 96.0355 96.0355C97.9882 94.0829 97.9882 90.9171 96.0355 88.9645L88.9645 96.0355ZM3.96447 88.9645C2.01184 90.9171 2.01184 94.0829 3.96447 96.0355C5.91709 97.9882 9.08291 97.9882 11.0355 96.0355L3.96447 88.9645ZM96.0355 11.0355C97.9882 9.08291 97.9882 5.91709 96.0355 3.96447C94.0829 2.01184 90.9171 2.01184 88.9645 3.96447L96.0355 11.0355ZM3.96447 11.0355L88.9645 96.0355L96.0355 88.9645L11.0355 3.96447L3.96447 11.0355ZM11.0355 96.0355L96.0355 11.0355L88.9645 3.96447L3.96447 88.9645L11.0355 96.0355Z" fill="#E0E0E0"/>
</svg>
