<svg width="100" height="100" viewBox="0 0 100 100" fill="none" xmlns="http://www.w3.org/2000/svg">
<path d="M9.26777 5.73223C8.29146 4.75592 6.70854 4.75592 5.73223 5.73223C4.75592 6.70854 4.75592 8.29146 5.73223 9.26777L9.26777 5.73223ZM90.7322 94.2678C91.7085 95.2441 93.2915 95.2441 94.2678 94.2678C95.2441 93.2915 95.2441 91.7085 94.2678 90.7322L90.7322 94.2678ZM5.73223 90.7322C4.75592 91.7085 4.75592 93.2915 5.73223 94.2678C6.70854 95.2441 8.29146 95.2441 9.26777 94.2678L5.73223 90.7322ZM94.2678 9.26777C95.2441 8.29146 95.2441 6.70854 94.2678 5.73223C93.2915 4.75592 91.7085 4.75592 90.7322 5.73223L94.2678 9.26777ZM5.73223 9.26777L90.7322 94.2678L94.2678 90.7322L9.26777 5.73223L5.73223 9.26777ZM9.26777 94.2678L94.2678 9.26777L90.7322 5.73223L5.73223 90.7322L9.26777 94.2678Z" fill="white"/>
</svg>
