<svg width="500" height="500" viewBox="0 0 500 500" fill="none" xmlns="http://www.w3.org/2000/svg">
<mask id="mask0" mask-type="alpha" maskUnits="userSpaceOnUse" x="0" y="0" width="500" height="500">
<circle cx="250" cy="250" r="250" fill="#C4C4C4"/>
</mask>
<g mask="url(#mask0)">
<path d="M261.833 364.861L318.778 421.806L370.119 370.466L360.058 228.438M261.833 364.861C247.217 379.477 181.368 445.326 104.479 522.215L-29.343 388.394L128.011 231.039M261.833 364.861C261.833 364.861 313.174 313.52 360.058 228.438M128.011 231.039L78.194 181.222L129.534 129.881L267.115 135.495M128.011 231.039C128.011 231.039 179.352 179.699 267.115 135.495M267.115 135.495C267.115 135.495 357.679 98.2634 376.338 116.922C394.365 134.949 360.058 228.438 360.058 228.438" stroke="#D47453" stroke-width="25" stroke-linecap="round" stroke-linejoin="round"/>
</g>
</svg>
