<svg width="10000" height="1920" viewBox="0 0 10000 1920" fill="none" xmlns="http://www.w3.org/2000/svg">
<rect width="10000" height="1920" fill="url(#paint0_linear)"/>
<circle cx="4245.5" cy="484.5" r="12.5" fill="white"/>
<circle cx="4698" cy="742.803" r="20" fill="white"/>
<circle cx="4137.79" cy="851.121" r="7.5" fill="white"/>
<circle cx="5188.08" cy="598.574" r="12.5" transform="rotate(-144.79 5188.08 598.574)" fill="white"/>
<circle cx="5514.55" cy="295.925" r="20" transform="rotate(-144.79 5514.55 295.925)" fill="white"/>
<circle cx="4998.2" cy="395.817" r="7.5" transform="rotate(-144.79 4998.2 395.817)" fill="white"/>
<circle cx="6664.21" cy="759.618" r="12.5" transform="rotate(179.935 6664.21 759.618)" fill="white"/>
<circle cx="6211.42" cy="501.831" r="20" transform="rotate(179.935 6211.42 501.831)" fill="white"/>
<circle cx="6771.5" cy="392.874" r="7.5" transform="rotate(179.935 6771.5 392.874)" fill="white"/>
<circle cx="5721.51" cy="646.62" r="12.5" transform="rotate(35.1445 5721.51 646.62)" fill="white"/>
<circle cx="5395.37" cy="949.641" r="20" transform="rotate(35.1445 5395.37 949.641)" fill="white"/>
<circle cx="5911.62" cy="849.16" r="7.5" transform="rotate(35.1445 5911.62 849.16)" fill="white"/>
<defs>
<linearGradient id="paint0_linear" x1="3.72529e-05" y1="960" x2="10000" y2="960" gradientUnits="userSpaceOnUse">
<stop offset="0.0916665" stop-color="#B8A589"/>
<stop offset="0.3" stop-color="#5B5482"/>
<stop offset="0.461458" stop-color="#2D2A44"/>
<stop offset="0.534375" stop-color="#26233A"/>
<stop offset="0.6125" stop-color="#2D2A44"/>
<stop offset="0.784375" stop-color="#5B5482"/>
<stop offset="1" stop-color="#B8A589"/>
</linearGradient>
</defs>
</svg>
