<svg width="464" height="179" viewBox="0 0 464 179" fill="none" xmlns="http://www.w3.org/2000/svg">
<path d="M2.698 88.2812C2.69802 100.006 40.8107 116.763 40.8107 116.763C80.1679 130.449 110.791 130.449 110.791 130.449L322.245 130.449L461.302 130.449L461.302 46.3575L322.245 46.3575L110.791 46.3575C110.791 46.3575 80.1679 46.3575 40.8107 58.3591C40.8107 58.3591 2.69798 76.9535 2.698 88.2812Z" fill="url(#paint0_linear)"/>
<path d="M40.8107 116.763C40.8107 116.763 2.69802 100.006 2.69799 88.2811C2.69797 76.9535 40.8107 58.359 40.8107 58.359L80.1244 10.5741L110.791 10.5741L110.791 46.3575L322.245 46.3575L461.302 46.3575L461.302 130.449L322.245 130.449L110.791 130.449L110.791 161.671L80.1244 161.671L40.8107 116.763Z" fill="url(#paint1_linear)"/>
<path d="M122.276 59.2012L122.276 117.605L131.054 117.605L131.054 59.2012L122.276 59.2012Z" fill="#232323" stroke="black" stroke-width="5" stroke-linecap="round" stroke-linejoin="round"/>
<path d="M140.136 59.2012L140.136 117.605L148.914 117.605L148.914 59.2012L140.136 59.2012Z" fill="#232323" stroke="black" stroke-width="5" stroke-linecap="round" stroke-linejoin="round"/>
<path d="M157.996 59.2012L157.996 117.605L166.774 117.605L166.774 59.2012L157.996 59.2012Z" fill="#232323" stroke="black" stroke-width="5" stroke-linecap="round" stroke-linejoin="round"/>
<path d="M461.302 46.3575L322.244 46.3575L401.867 2.23968L461.302 2.23968L461.302 46.3575Z" fill="#ABABAB"/>
<path d="M461.302 131.642L322.244 131.642L401.867 175.76L461.302 175.76L461.302 131.642Z" fill="#676767"/>
<path d="M110.791 46.3574L110.791 10.574L80.1682 10.574L40.811 58.3589M110.791 46.3574C119.509 46.3574 276.383 46.3574 322.245 46.3574M110.791 46.3574C110.791 46.3574 80.1682 46.3574 40.811 58.3589M110.791 130.449L110.791 161.753L80.1682 161.753L40.811 116.763M110.791 130.449L322.245 130.449M110.791 130.449C110.791 130.449 80.1682 130.449 40.811 116.763M40.811 116.763C40.811 116.763 2.69826 100.006 2.69824 88.281C2.69822 76.9534 40.811 58.3589 40.811 58.3589M322.245 130.449L402.83 175.76L461.302 175.76L461.302 130.449M322.245 130.449L461.302 130.449M322.245 46.3574L402.83 3.2439L461.302 3.24389L461.302 46.3574M322.245 46.3574L461.302 46.3574M461.302 130.449L461.302 46.3574" stroke="black" stroke-width="5" stroke-linecap="round" stroke-linejoin="round"/>
<path d="M113.194 59.2013L113.194 117.605C82.571 117.605 17.9116 104.116 17.9116 89.1234C17.9116 74.1306 82.571 59.2013 113.194 59.2013Z" fill="#232323" stroke="black" stroke-width="5" stroke-linecap="round" stroke-linejoin="round"/>
<mask id="mask0" mask-type="alpha" maskUnits="userSpaceOnUse" x="15" y="56" width="101" height="65">
<path d="M113.194 59.2013L113.194 117.605C82.571 117.605 17.9116 104.116 17.9116 89.1234C17.9116 74.1306 82.571 59.2013 113.194 59.2013Z" fill="#232323" stroke="black" stroke-width="5" stroke-linecap="round" stroke-linejoin="round"/>
</mask>
<g mask="url(#mask0)">
<path d="M146.356 91.383C147.332 90.4067 148.915 90.4067 149.891 91.383C150.868 92.3593 150.868 93.9422 149.891 94.9185L146.356 91.383ZM72.1638 172.646C71.1875 173.622 69.6045 173.622 68.6282 172.646C67.6519 171.67 67.6519 170.087 68.6282 169.111L72.1638 172.646ZM149.891 94.9185L72.1638 172.646L68.6282 169.111L146.356 91.383L149.891 94.9185Z" fill="black"/>
<path d="M146.356 91.383C147.332 90.4067 148.915 90.4067 149.891 91.383C150.868 92.3593 150.868 93.9422 149.891 94.9185L146.356 91.383ZM72.1638 172.646C71.1875 173.622 69.6045 173.622 68.6282 172.646C67.6519 171.67 67.6519 170.087 68.6282 169.111L72.1638 172.646ZM149.891 94.9185L72.1638 172.646L68.6282 169.111L146.356 91.383L149.891 94.9185Z" fill="black"/>
<path d="M135.577 81.2458C136.554 80.2695 138.136 80.2695 139.113 81.2458C140.089 82.2221 140.089 83.805 139.113 84.7813L135.577 81.2458ZM61.3852 162.509C60.4089 163.485 58.826 163.485 57.8497 162.509C56.8734 161.533 56.8734 159.95 57.8497 158.973L61.3852 162.509ZM139.113 84.7813L61.3852 162.509L57.8497 158.973L135.577 81.2458L139.113 84.7813Z" fill="black"/>
<path d="M126.815 69.092C127.792 68.1157 129.375 68.1157 130.351 69.092C131.327 70.0683 131.327 71.6512 130.351 72.6275L126.815 69.092ZM52.6232 150.355C51.6469 151.331 50.064 151.331 49.0877 150.355C48.1114 149.379 48.1114 147.796 49.0877 146.82L52.6232 150.355ZM130.351 72.6275L52.6232 150.355L49.0877 146.82L126.815 69.092L130.351 72.6275Z" fill="black"/>
<path d="M117.205 57.7861C118.181 56.8098 119.764 56.8098 120.741 57.7861C121.717 58.7624 121.717 60.3453 120.741 61.3216L117.205 57.7861ZM43.0131 139.049C42.0368 140.026 40.4539 140.026 39.4776 139.049C38.5013 138.073 38.5013 136.49 39.4776 135.514L43.0131 139.049ZM120.741 61.3216L43.0131 139.049L39.4776 135.514L117.205 57.7861L120.741 61.3216Z" fill="black"/>
<path d="M107.878 46.1976C108.854 45.2213 110.437 45.2213 111.413 46.1976C112.39 47.1739 112.39 48.7568 111.413 49.7331L107.878 46.1976ZM33.6857 127.461C32.7094 128.437 31.1265 128.437 30.1502 127.461C29.1739 126.484 29.1739 124.902 30.1502 123.925L33.6857 127.461ZM111.413 49.7331L33.6857 127.461L30.1502 123.925L107.878 46.1976L111.413 49.7331Z" fill="black"/>
<path d="M97.7406 35.4191C98.7169 34.4428 100.3 34.4428 101.276 35.4191C102.252 36.3954 102.252 37.9783 101.276 38.9546L97.7406 35.4191ZM23.5485 116.682C22.5722 117.659 20.9893 117.659 20.013 116.682C19.0367 115.706 19.0367 114.123 20.013 113.147L23.5485 116.682ZM101.276 38.9546L23.5485 116.682L20.013 113.147L97.7406 35.4191L101.276 38.9546Z" fill="black"/>
<path d="M97.7406 35.4191C98.7169 34.4428 100.3 34.4428 101.276 35.4191C102.252 36.3954 102.252 37.9783 101.276 38.9546L97.7406 35.4191ZM23.5485 116.682C22.5722 117.659 20.9893 117.659 20.013 116.682C19.0367 115.706 19.0367 114.123 20.013 113.147L23.5485 116.682ZM101.276 38.9546L23.5485 116.682L20.013 113.147L97.7406 35.4191L101.276 38.9546Z" fill="black"/>
<path d="M86.962 25.2819C87.9383 24.3056 89.5212 24.3056 90.4976 25.2819C91.4739 26.2583 91.4739 27.8412 90.4976 28.8175L86.962 25.2819ZM12.77 106.545C11.7937 107.521 10.2107 107.521 9.23443 106.545C8.25812 105.569 8.25812 103.986 9.23443 103.01L12.77 106.545ZM90.4976 28.8175L12.77 106.545L9.23443 103.01L86.962 25.2819L90.4976 28.8175Z" fill="black"/>
<path d="M78.2001 13.1281C79.1764 12.1518 80.7593 12.1518 81.7356 13.1281C82.7119 14.1044 82.7119 15.6873 81.7356 16.6636L78.2001 13.1281ZM4.00801 94.3912C3.03169 95.3676 1.44878 95.3676 0.472471 94.3912C-0.50384 93.4149 -0.50384 91.832 0.472471 90.8557L4.00801 94.3912ZM81.7356 16.6636L4.00801 94.3912L0.472471 90.8557L78.2001 13.1281L81.7356 16.6636Z" fill="black"/>
<path d="M68.5902 1.82223C69.5665 0.845918 71.1494 0.845917 72.1257 1.82223C73.102 2.79854 73.102 4.38145 72.1257 5.35776L68.5902 1.82223ZM-5.60186 83.0854C-6.57817 84.0617 -8.16108 84.0617 -9.13739 83.0854C-10.1137 82.1091 -10.1137 80.5261 -9.13739 79.5498L-5.60186 83.0854ZM72.1257 5.35776L-5.60186 83.0854L-9.13739 79.5498L68.5902 1.82223L72.1257 5.35776Z" fill="black"/>
<path d="M59.2628 -9.76627C60.2391 -10.7426 61.822 -10.7426 62.7983 -9.76627C63.7746 -8.78996 63.7746 -7.20705 62.7983 -6.23074L59.2628 -9.76627ZM-14.9293 71.4969C-15.9056 72.4732 -17.4885 72.4732 -18.4648 71.4969C-19.4411 70.5206 -19.4411 68.9376 -18.4648 67.9613L-14.9293 71.4969ZM62.7983 -6.23074L-14.9293 71.4969L-18.4648 67.9613L59.2628 -9.76627L62.7983 -6.23074Z" fill="black"/>
<path d="M82.5688 21.5829C81.5925 20.6066 81.5925 19.0237 82.5688 18.0474C83.5452 17.0711 85.1281 17.0711 86.1044 18.0474L82.5688 21.5829ZM163.832 95.775C164.808 96.7513 164.808 98.3342 163.832 99.3105C162.856 100.287 161.273 100.287 160.296 99.3105L163.832 95.775ZM86.1044 18.0474L163.832 95.775L160.296 99.3105L82.5688 21.5829L86.1044 18.0474Z" fill="black"/>
<path d="M82.5688 21.5829C81.5925 20.6066 81.5925 19.0237 82.5688 18.0474C83.5452 17.0711 85.1281 17.0711 86.1044 18.0474L82.5688 21.5829ZM163.832 95.775C164.808 96.7513 164.808 98.3342 163.832 99.3105C162.856 100.287 161.273 100.287 160.296 99.3105L163.832 95.775ZM86.1044 18.0474L163.832 95.775L160.296 99.3105L82.5688 21.5829L86.1044 18.0474Z" fill="black"/>
<path d="M72.4316 32.3615C71.4553 31.3852 71.4553 29.8023 72.4316 28.826C73.4079 27.8497 74.9909 27.8497 75.9672 28.826L72.4316 32.3615ZM153.695 106.554C154.671 107.53 154.671 109.113 153.695 110.089C152.718 111.065 151.136 111.065 150.159 110.089L153.695 106.554ZM75.9672 28.826L153.695 106.554L150.159 110.089L72.4316 32.3615L75.9672 28.826Z" fill="black"/>
<path d="M60.2778 41.1236C59.3015 40.1472 59.3015 38.5643 60.2778 37.588C61.2541 36.6117 62.837 36.6117 63.8134 37.588L60.2778 41.1236ZM141.541 115.316C142.517 116.292 142.517 117.875 141.541 118.851C140.565 119.827 138.982 119.827 138.005 118.851L141.541 115.316ZM63.8134 37.588L141.541 115.316L138.005 118.851L60.2778 41.1236L63.8134 37.588Z" fill="black"/>
<path d="M48.9719 50.7336C47.9956 49.7573 47.9956 48.1743 48.9719 47.198C49.9482 46.2217 51.5311 46.2217 52.5075 47.198L48.9719 50.7336ZM130.235 124.926C131.211 125.902 131.211 127.485 130.235 128.461C129.259 129.437 127.676 129.437 126.7 128.461L130.235 124.926ZM52.5075 47.198L130.235 124.926L126.7 128.461L48.9719 50.7336L52.5075 47.198Z" fill="black"/>
<path d="M37.3835 60.0609C36.4072 59.0846 36.4072 57.5017 37.3835 56.5254C38.3598 55.5491 39.9428 55.5491 40.9191 56.5254L37.3835 60.0609ZM118.647 134.253C119.623 135.229 119.623 136.812 118.647 137.789C117.67 138.765 116.087 138.765 115.111 137.789L118.647 134.253ZM40.9191 56.5254L118.647 134.253L115.111 137.789L37.3835 60.0609L40.9191 56.5254Z" fill="black"/>
<path d="M26.6052 70.198C25.6289 69.2217 25.6289 67.6388 26.6052 66.6625C27.5815 65.6861 29.1644 65.6861 30.1408 66.6625L26.6052 70.198ZM107.868 144.39C108.845 145.366 108.845 146.949 107.868 147.926C106.892 148.902 105.309 148.902 104.333 147.926L107.868 144.39ZM30.1408 66.6625L107.868 144.39L104.333 147.926L26.6052 70.198L30.1408 66.6625Z" fill="black"/>
<path d="M26.6052 70.198C25.6289 69.2217 25.6289 67.6388 26.6052 66.6625C27.5815 65.6861 29.1644 65.6861 30.1408 66.6625L26.6052 70.198ZM107.868 144.39C108.845 145.366 108.845 146.949 107.868 147.926C106.892 148.902 105.309 148.902 104.333 147.926L107.868 144.39ZM30.1408 66.6625L107.868 144.39L104.333 147.926L26.6052 70.198L30.1408 66.6625Z" fill="black"/>
<path d="M16.468 80.9765C15.4917 80.0002 15.4917 78.4173 16.468 77.441C17.4443 76.4647 19.0272 76.4647 20.0035 77.441L16.468 80.9765ZM97.7311 155.169C98.7075 156.145 98.7075 157.728 97.7311 158.704C96.7548 159.68 95.1719 159.68 94.1956 158.704L97.7311 155.169ZM20.0035 77.441L97.7311 155.169L94.1956 158.704L16.468 80.9765L20.0035 77.441Z" fill="black"/>
<path d="M4.3142 89.7386C3.33789 88.7623 3.33789 87.1794 4.3142 86.2031C5.29051 85.2268 6.87342 85.2268 7.84974 86.2031L4.3142 89.7386ZM85.5773 163.931C86.5537 164.907 86.5537 166.49 85.5773 167.466C84.601 168.443 83.0181 168.443 82.0418 167.466L85.5773 163.931ZM7.84974 86.2031L85.5773 163.931L82.0418 167.466L4.3142 89.7386L7.84974 86.2031Z" fill="black"/>
<path d="M-6.99171 99.3486C-7.96802 98.3723 -7.96802 96.7894 -6.99171 95.8131C-6.0154 94.8368 -4.43248 94.8368 -3.45617 95.8131L-6.99171 99.3486ZM74.2714 173.541C75.2477 174.517 75.2477 176.1 74.2714 177.076C73.2951 178.053 71.7122 178.053 70.7359 177.076L74.2714 173.541ZM-3.45617 95.8131L74.2714 173.541L70.7359 177.076L-6.99171 99.3486L-3.45617 95.8131Z" fill="black"/>
<path d="M-18.5803 108.676C-19.5566 107.7 -19.5566 106.117 -18.5803 105.14C-17.604 104.164 -16.0211 104.164 -15.0448 105.14L-18.5803 108.676ZM62.6828 182.868C63.6591 183.844 63.6591 185.427 62.6828 186.404C61.7065 187.38 60.1236 187.38 59.1473 186.404L62.6828 182.868ZM-15.0448 105.14L62.6828 182.868L59.1473 186.404L-18.5803 108.676L-15.0448 105.14Z" fill="black"/>
</g>
<defs>
<linearGradient id="paint0_linear" x1="322.349" y1="130.449" x2="324.243" y2="46.3575" gradientUnits="userSpaceOnUse">
<stop stop-color="#676767"/>
<stop offset="0.86875" stop-color="#ABABAB"/>
</linearGradient>
<linearGradient id="paint1_linear" x1="322.349" y1="130.449" x2="324.243" y2="46.3575" gradientUnits="userSpaceOnUse">
<stop stop-color="#676767"/>
<stop offset="0.86875" stop-color="#ABABAB"/>
</linearGradient>
</defs>
</svg>
