<svg width="615" height="1575" viewBox="0 0 615 1575" fill="none" xmlns="http://www.w3.org/2000/svg">
<g filter="url(#filter0_d)">
<path d="M309.688 52.041C274 52.0411 222.998 168.046 222.998 168.046C181.341 287.838 181.341 381.046 181.341 381.046L181.341 1024.65L181.341 1447.91H437.292L437.292 1024.65L437.292 381.046C437.292 381.046 437.292 287.838 400.763 168.046C400.763 168.046 344.166 52.041 309.688 52.041Z" fill="#9CA1AA"/>
<path d="M222.998 168.046C222.998 168.046 274 52.0411 309.688 52.041C344.166 52.041 400.763 168.046 400.763 168.046L546.207 287.706V381.046H437.292L437.292 1024.65V1447.91H181.341V1024.65L181.341 381.046H86.3086V287.706L222.998 168.046Z" fill="#9CA1AA"/>
<path d="M398.199 416.004H220.434V442.722H398.199V416.004Z" fill="#70767E" stroke="#C9CFD9" stroke-width="15" stroke-linecap="round" stroke-linejoin="round"/>
<path d="M398.199 470.365H220.434V497.083H398.199V470.365Z" fill="#70767E" stroke="#C9CFD9" stroke-width="15" stroke-linecap="round" stroke-linejoin="round"/>
<path d="M398.199 524.726H220.434V551.444H398.199V524.726Z" fill="#70767E" stroke="#C9CFD9" stroke-width="15" stroke-linecap="round" stroke-linejoin="round"/>
<path d="M437.292 1447.91V1024.65L571.575 1267V1447.91H437.292Z" fill="#9CA1AA"/>
<path d="M177.708 1447.91L177.708 1024.65L43.4254 1267L43.4254 1447.91H177.708Z" fill="#9CA1AA"/>
<rect x="181.341" y="1447.91" width="35" height="40" fill="#9CA1AA" stroke="#C9CFD9" stroke-width="15" stroke-linecap="round" stroke-linejoin="round"/>
<rect x="402.292" y="1447.91" width="35" height="40" fill="#9CA1AA" stroke="#C9CFD9" stroke-width="15" stroke-linecap="round" stroke-linejoin="round"/>
<rect x="290" y="1447.91" width="35" height="40" fill="#9CA1AA" stroke="#C9CFD9" stroke-width="15" stroke-linecap="round" stroke-linejoin="round"/>
<path d="M437.292 381.046H546.207V287.838L400.763 168.046M437.292 381.046C437.292 407.582 437.292 885.062 437.292 1024.65M437.292 381.046C437.292 381.046 437.292 287.838 400.763 168.046M181.341 381.046H86.0592L86.0592 287.838L222.998 168.046M181.341 381.046L181.341 1024.65M181.341 381.046C181.341 381.046 181.341 287.838 222.998 168.046M222.998 168.046C222.998 168.046 274 52.0411 309.688 52.041C344.166 52.041 400.763 168.046 400.763 168.046M181.341 1024.65L43.4254 1269.93L43.4254 1447.91H181.341M181.341 1024.65L181.341 1447.91M437.292 1024.65L568.518 1269.93V1447.91H437.292M437.292 1024.65V1447.91M181.341 1447.91H437.292" stroke="#C9CFD9" stroke-width="15" stroke-linecap="round" stroke-linejoin="round"/>
<path d="M398.199 388.36H220.434C220.434 295.153 261.491 98.3471 307.125 98.3471C352.759 98.3471 398.199 295.153 398.199 388.36Z" fill="#70767E" stroke="#C9CFD9" stroke-width="15" stroke-linecap="round" stroke-linejoin="round"/>
<mask id="mask0" mask-type="alpha" maskUnits="userSpaceOnUse" x="212" y="90" width="194" height="306">
<path d="M398.199 388.36H220.434C220.434 295.153 261.491 98.3471 307.125 98.3471C352.759 98.3471 398.199 295.153 398.199 388.36Z" fill="#232323" stroke="#C9CFD9" stroke-width="15" stroke-linecap="round" stroke-linejoin="round"/>
</mask>
<g mask="url(#mask0)">
<path d="M300.169 489.373C303.098 492.302 303.098 497.051 300.169 499.98C297.241 502.909 292.492 502.909 289.563 499.98L300.169 489.373ZM52.9813 263.398C50.0524 260.469 50.0524 255.72 52.9813 252.791C55.9103 249.863 60.659 249.863 63.5879 252.791L52.9813 263.398ZM289.563 499.98L52.9813 263.398L63.5879 252.791L300.169 489.373L289.563 499.98Z" fill="#C9CFD9"/>
<path d="M300.169 489.373C303.098 492.302 303.098 497.051 300.169 499.98C297.241 502.909 292.492 502.909 289.563 499.98L300.169 489.373ZM52.9813 263.398C50.0524 260.469 50.0524 255.72 52.9813 252.791C55.9103 249.863 60.659 249.863 63.5879 252.791L52.9813 263.398ZM289.563 499.98L52.9813 263.398L63.5879 252.791L300.169 489.373L289.563 499.98Z" fill="#C9CFD9"/>
<path d="M331.024 456.566C333.953 459.495 333.953 464.244 331.024 467.172C328.095 470.101 323.347 470.101 320.418 467.172L331.024 456.566ZM83.8362 230.591C80.9073 227.662 80.9073 222.913 83.8362 219.984C86.7651 217.055 91.5139 217.055 94.4428 219.984L83.8362 230.591ZM320.418 467.172L83.8362 230.591L94.4428 219.984L331.024 456.566L320.418 467.172Z" fill="#C9CFD9"/>
<path d="M368.017 429.897C370.946 432.825 370.946 437.574 368.017 440.503C365.088 443.432 360.34 443.432 357.411 440.503L368.017 429.897ZM120.829 203.922C117.9 200.993 117.9 196.244 120.829 193.315C123.758 190.386 128.507 190.386 131.436 193.315L120.829 203.922ZM357.411 440.503L120.829 203.922L131.436 193.315L368.017 429.897L357.411 440.503Z" fill="#C9CFD9"/>
<path d="M402.429 400.646C405.358 403.575 405.358 408.324 402.429 411.253C399.5 414.182 394.752 414.182 391.823 411.253L402.429 400.646ZM155.241 174.671C152.312 171.742 152.312 166.994 155.241 164.065C158.17 161.136 162.919 161.136 165.848 164.065L155.241 174.671ZM391.823 411.253L155.241 174.671L165.848 164.065L402.429 400.646L391.823 411.253Z" fill="#C9CFD9"/>
<path d="M437.702 372.256C440.63 375.185 440.63 379.934 437.702 382.863C434.773 385.792 430.024 385.792 427.095 382.863L437.702 372.256ZM190.513 146.282C187.584 143.353 187.584 138.604 190.513 135.675C193.442 132.746 198.191 132.746 201.12 135.675L190.513 146.282ZM427.095 382.863L190.513 146.282L201.12 135.675L437.702 372.256L427.095 382.863Z" fill="#C9CFD9"/>
<path d="M470.508 341.402C473.437 344.331 473.437 349.08 470.508 352.009C467.579 354.938 462.831 354.938 459.902 352.009L470.508 341.402ZM223.32 115.427C220.391 112.498 220.391 107.749 223.32 104.821C226.249 101.892 230.998 101.892 233.927 104.821L223.32 115.427ZM459.902 352.009L223.32 115.427L233.927 104.821L470.508 341.402L459.902 352.009Z" fill="#C9CFD9"/>
<path d="M470.508 341.402C473.437 344.331 473.437 349.08 470.508 352.009C467.579 354.938 462.831 354.938 459.902 352.009L470.508 341.402ZM223.32 115.427C220.391 112.498 220.391 107.749 223.32 104.821C226.249 101.892 230.998 101.892 233.927 104.821L223.32 115.427ZM459.902 352.009L223.32 115.427L233.927 104.821L470.508 341.402L459.902 352.009Z" fill="#C9CFD9"/>
<path d="M501.363 308.595C504.292 311.524 504.292 316.273 501.363 319.202C498.434 322.13 493.685 322.13 490.756 319.202L501.363 308.595ZM254.175 82.62C251.246 79.6911 251.246 74.9424 254.175 72.0134C257.104 69.0845 261.853 69.0845 264.781 72.0134L254.175 82.62ZM490.756 319.202L254.175 82.62L264.781 72.0134L501.363 308.595L490.756 319.202Z" fill="#C9CFD9"/>
<path d="M538.356 281.926C541.285 284.855 541.285 289.603 538.356 292.532C535.427 295.461 530.678 295.461 527.749 292.532L538.356 281.926ZM291.168 55.9507C288.239 53.0218 288.239 48.273 291.168 45.3441C294.097 42.4152 298.845 42.4152 301.774 45.3441L291.168 55.9507ZM527.749 292.532L291.168 55.9507L301.774 45.3441L538.356 281.926L527.749 292.532Z" fill="#C9CFD9"/>
<path d="M572.768 252.675C575.697 255.604 575.697 260.353 572.768 263.282C569.839 266.211 565.09 266.211 562.161 263.282L572.768 252.675ZM325.58 26.7005C322.651 23.7715 322.651 19.0228 325.58 16.0939C328.509 13.1649 333.257 13.1649 336.186 16.0939L325.58 26.7005ZM562.161 263.282L325.58 26.7005L336.186 16.0939L572.768 252.675L562.161 263.282Z" fill="#C9CFD9"/>
<path d="M608.04 224.285C610.969 227.214 610.969 231.963 608.04 234.892C605.111 237.821 600.363 237.821 597.434 234.892L608.04 224.285ZM360.852 -1.68945C357.923 -4.61838 357.923 -9.36712 360.852 -12.2961C363.781 -15.225 368.53 -15.225 371.459 -12.2961L360.852 -1.68945ZM597.434 234.892L360.852 -1.68945L371.459 -12.2961L608.04 224.285L597.434 234.892Z" fill="#C9CFD9"/>
<path d="M512.777 295.224C515.705 292.295 520.454 292.295 523.383 295.224C526.312 298.153 526.312 302.901 523.383 305.83L512.777 295.224ZM286.802 542.412C283.873 545.341 279.124 545.341 276.195 542.412C273.266 539.483 273.266 534.734 276.195 531.805L286.802 542.412ZM523.383 305.83L286.802 542.412L276.195 531.805L512.777 295.224L523.383 305.83Z" fill="#C9CFD9"/>
<path d="M512.777 295.224C515.705 292.295 520.454 292.295 523.383 295.224C526.312 298.153 526.312 302.901 523.383 305.83L512.777 295.224ZM286.802 542.412C283.873 545.341 279.124 545.341 276.195 542.412C273.266 539.483 273.266 534.734 276.195 531.805L286.802 542.412ZM523.383 305.83L286.802 542.412L276.195 531.805L512.777 295.224L523.383 305.83Z" fill="#C9CFD9"/>
<path d="M479.969 264.369C482.898 261.44 487.647 261.44 490.576 264.369C493.505 267.298 493.505 272.047 490.576 274.975L479.969 264.369ZM253.995 511.557C251.066 514.486 246.317 514.486 243.388 511.557C240.459 508.628 240.459 503.879 243.388 500.95L253.995 511.557ZM490.576 274.975L253.995 511.557L243.388 500.95L479.969 264.369L490.576 274.975Z" fill="#C9CFD9"/>
<path d="M453.3 227.376C456.229 224.447 460.978 224.447 463.907 227.376C466.836 230.305 466.836 235.054 463.907 237.983L453.3 227.376ZM227.325 474.564C224.396 477.493 219.648 477.493 216.719 474.564C213.79 471.635 213.79 466.886 216.719 463.958L227.325 474.564ZM463.907 237.983L227.325 474.564L216.719 463.958L453.3 227.376L463.907 237.983Z" fill="#C9CFD9"/>
<path d="M424.05 192.964C426.979 190.035 431.728 190.035 434.657 192.964C437.585 195.893 437.585 200.642 434.657 203.571L424.05 192.964ZM198.075 440.152C195.146 443.081 190.397 443.081 187.468 440.152C184.539 437.223 184.539 432.474 187.468 429.546L198.075 440.152ZM434.657 203.571L198.075 440.152L187.468 429.546L424.05 192.964L434.657 203.571Z" fill="#C9CFD9"/>
<path d="M395.66 157.692C398.589 154.763 403.338 154.763 406.267 157.692C409.196 160.621 409.196 165.369 406.267 168.298L395.66 157.692ZM169.685 404.88C166.756 407.809 162.007 407.809 159.078 404.88C156.15 401.951 156.15 397.202 159.078 394.273L169.685 404.88ZM406.267 168.298L169.685 404.88L159.078 394.273L395.66 157.692L406.267 168.298Z" fill="#C9CFD9"/>
<path d="M364.806 124.885C367.735 121.956 372.483 121.956 375.412 124.885C378.341 127.814 378.341 132.563 375.412 135.492L364.806 124.885ZM138.831 372.073C135.902 375.002 131.153 375.002 128.224 372.073C125.295 369.144 125.295 364.396 128.224 361.467L138.831 372.073ZM375.412 135.492L138.831 372.073L128.224 361.467L364.806 124.885L375.412 135.492Z" fill="#C9CFD9"/>
<path d="M364.806 124.885C367.735 121.956 372.483 121.956 375.412 124.885C378.341 127.814 378.341 132.563 375.412 135.492L364.806 124.885ZM138.831 372.073C135.902 375.002 131.153 375.002 128.224 372.073C125.295 369.144 125.295 364.396 128.224 361.467L138.831 372.073ZM375.412 135.492L138.831 372.073L128.224 361.467L364.806 124.885L375.412 135.492Z" fill="#C9CFD9"/>
<path d="M331.999 94.0302C334.927 91.1013 339.676 91.1013 342.605 94.0302C345.534 96.9591 345.534 101.708 342.605 104.637L331.999 94.0302ZM106.024 341.218C103.095 344.147 98.3459 344.147 95.417 341.218C92.4881 338.289 92.4881 333.541 95.417 330.612L106.024 341.218ZM342.605 104.637L106.024 341.218L95.417 330.612L331.999 94.0302L342.605 104.637Z" fill="#C9CFD9"/>
<path d="M305.329 57.0373C308.258 54.1084 313.007 54.1084 315.936 57.0373C318.865 59.9663 318.865 64.715 315.936 67.6439L305.329 57.0373ZM79.3543 304.225C76.4253 307.154 71.6766 307.154 68.7477 304.225C65.8187 301.297 65.8187 296.548 68.7477 293.619L79.3543 304.225ZM315.936 67.6439L79.3543 304.225L68.7477 293.619L305.329 57.0373L315.936 67.6439Z" fill="#C9CFD9"/>
<path d="M276.079 22.6253C279.008 19.6964 283.757 19.6964 286.686 22.6253C289.614 25.5542 289.615 30.303 286.686 33.2319L276.079 22.6253ZM50.104 269.813C47.1751 272.742 42.4264 272.742 39.4974 269.813C36.5685 266.885 36.5685 262.136 39.4974 259.207L50.104 269.813ZM286.686 33.2319L50.104 269.813L39.4974 259.207L276.079 22.6253L286.686 33.2319Z" fill="#C9CFD9"/>
<path d="M247.689 -12.647C250.618 -15.5759 255.367 -15.5759 258.296 -12.647C261.225 -9.71806 261.225 -4.96933 258.296 -2.04039L247.689 -12.647ZM21.7141 234.541C18.7852 237.47 14.0364 237.47 11.1075 234.541C8.17858 231.612 8.17858 226.863 11.1075 223.935L21.7141 234.541ZM258.296 -2.04039L21.7141 234.541L11.1075 223.935L247.689 -12.647L258.296 -2.04039Z" fill="#C9CFD9"/>
</g>
</g>
<defs>
<filter id="filter0_d" x="35.9254" y="44.541" width="554.092" height="1464.86" filterUnits="userSpaceOnUse" color-interpolation-filters="sRGB">
<feFlood flood-opacity="0" result="BackgroundImageFix"/>
<feColorMatrix in="SourceAlpha" type="matrix" values="0 0 0 0 0 0 0 0 0 0 0 0 0 0 0 0 0 0 127 0"/>
<feOffset dx="10" dy="10"/>
<feGaussianBlur stdDeviation="2"/>
<feColorMatrix type="matrix" values="0 0 0 0 0 0 0 0 0 0 0 0 0 0 0 0 0 0 0.25 0"/>
<feBlend mode="normal" in2="BackgroundImageFix" result="effect1_dropShadow"/>
<feBlend mode="normal" in="SourceGraphic" in2="effect1_dropShadow" result="shape"/>
</filter>
</defs>
</svg>
